<svg version="1.1" viewBox="0.0 0.0 1135.0 449.0" fill="none" stroke="none" stroke-linecap="square" stroke-miterlimit="10" xmlns:xlink="http://www.w3.org/1999/xlink" xmlns="http://www.w3.org/2000/svg"><clipPath id="p.0"><path d="m0 0l1135.0 0l0 449.0l-1135.0 0l0 -449.0z" clip-rule="nonzero"/></clipPath><g clip-path="url(#p.0)"><path fill="#000000" fill-opacity="0.0" d="m0 0l1135.0 0l0 449.0l-1135.0 0z" fill-rule="evenodd"/><path fill="#6488ff" d="m27.755905 9.602363l260.25195 0l0 103.81102l-260.25195 0z" fill-rule="evenodd"/><path fill="#ffffff" d="m139.33696 70.1885q-1.875 0 -3.59375 -0.59375q-1.71875 -0.609375 -2.65625 -1.59375l0.703125 -1.359375q0.90625 0.90625 2.421875 1.46875q1.515625 0.5625 3.125 0.5625q2.25 0 3.375 -0.828125q1.125 -0.828125 1.125 -2.140625q0 -1.015625 -0.609375 -1.609375q-0.609375 -0.59375 -1.5 -0.921875q-0.890625 -0.328125 -2.46875 -0.703125q-1.890625 -0.484375 -3.03125 -0.921875q-1.125 -0.453125 -1.9375 -1.359375q-0.796875 -0.921875 -0.796875 -2.484375q0 -1.265625 0.671875 -2.3125q0.671875 -1.046875 2.0625 -1.65625q1.390625 -0.625 3.46875 -0.625q1.4375 0 2.8125 0.390625q1.375 0.390625 2.390625 1.09375l-0.59375 1.40625q-1.0625 -0.6875 -2.265625 -1.03125q-1.203125 -0.359375 -2.34375 -0.359375q-2.21875 0 -3.34375 0.859375q-1.109375 0.84375 -1.109375 2.1875q0 1.015625 0.609375 1.625q0.625 0.609375 1.546875 0.9375q0.921875 0.328125 2.484375 0.703125q1.84375 0.46875 2.984375 0.90625q1.140625 0.4375 1.921875 1.34375q0.796875 0.90625 0.796875 2.4375q0 1.265625 -0.6875 2.3125q-0.671875 1.046875 -2.09375 1.65625q-1.40625 0.609375 -3.46875 0.609375zm10.119339 -16.9375l1.78125 0l0 16.796875l-1.78125 0l0 -16.796875zm10.513611 1.53125l-5.90625 0l0 -1.53125l13.59375 0l0 1.53125l-5.90625 0l0 15.265625l-1.78125 0l0 -15.265625zm22.38533 13.734375l0 1.53125l-11.875 0l0 -16.796875l11.515625 0l0 1.53125l-9.734375 0l0 5.984375l8.6875 0l0 1.5l-8.6875 0l0 6.25l10.09375 0z" fill-rule="nonzero"/><path fill="#8d64ff" d="m27.754593 157.2441l260.25195 0l0 103.81102l-260.25195 0z" fill-rule="evenodd"/><path fill="#ffffff" d="m92.03019 216.15836l0 1.53125l-11.875 0l0 -16.796875l11.515625 0l0 1.53125l-9.734375 0l0 5.984375l8.6875 0l0 1.5l-8.6875 0l0 6.25l10.09375 0zm14.496201 1.53125l-5.421875 -7.390625l-5.390625 7.390625l-2.046875 0l6.390625 -8.640625l-5.984375 -8.15625l2.046875 0l5.0625 6.859375l5.03125 -6.859375l1.921875 0l-5.953125 8.109375l6.421875 8.6875l-2.078125 0zm10.9335785 -16.796875q3.203125 0 5.03125 1.53125q1.828125 1.53125 1.828125 4.21875q0 2.6875 -1.828125 4.21875q-1.828125 1.53125 -5.03125 1.53125l-4.515625 0l0 5.296875l-1.78125 0l0 -16.796875l6.296875 0zm-0.0625 9.9375q2.5 0 3.8125 -1.09375q1.328125 -1.09375 1.328125 -3.09375q0 -2.03125 -1.328125 -3.125q-1.3125 -1.09375 -3.8125 -1.09375l-4.453125 0l0 8.40625l4.453125 0zm22.632576 5.328125l0 1.53125l-11.875 0l0 -16.796875l11.515625 0l0 1.53125l-9.734375 0l0 5.984375l8.6875 0l0 1.5l-8.6875 0l0 6.25l10.09375 0zm15.649704 1.53125l-3.828125 -5.40625q-0.65625 0.078125 -1.34375 0.078125l-4.515625 0l0 5.328125l-1.78125 0l0 -16.796875l6.296875 0q3.203125 0 5.03125 1.53125q1.8281097 1.53125 1.8281097 4.21875q0 1.96875 -1.0 3.328125q-0.99998474 1.359375 -2.8437347 1.953125l4.1093597 5.765625l-1.9531097 0zm-5.234375 -6.84375q2.5 0 3.8125 -1.09375q1.328125 -1.109375 1.328125 -3.109375q0 -2.03125 -1.328125 -3.125q-1.3125 -1.09375 -3.8125 -1.09375l-4.453125 0l0 8.421875l4.453125 0zm11.117569 -9.953125l1.78125 0l0 16.796875l-1.78125 0l0 -16.796875zm24.70111 0l0 16.796875l-1.703125 0l0 -13.4375l-6.609375 11.296875l-0.828125 0l-6.609375 -11.234375l0 13.375l-1.703125 0l0 -16.796875l1.46875 0l7.296875 12.453125l7.21875 -12.453125l1.46875 0zm17.341797 15.265625l0 1.53125l-11.875 0l0 -16.796875l11.515625 0l0 1.53125l-9.734375 0l0 5.984375l8.6875 0l0 1.5l-8.6875 0l0 6.25l10.09375 0zm18.227844 -15.265625l0 16.796875l-1.46875 0l-10.796875 -13.625l0 13.625l-1.78125 0l0 -16.796875l1.46875 0l10.828125 13.625l0 -13.625l1.75 0zm8.730682 1.53125l-5.90625 0l0 -1.53125l13.59375 0l0 1.53125l-5.90625 0l0 15.265625l-1.78125 0l0 -15.265625z" fill-rule="nonzero"/><path fill="#8d64ff" d="m300.83334 157.2441l260.25198 0l0 103.81102l-260.25198 0z" fill-rule="evenodd"/><path fill="#ffffff" d="m414.60254 200.89273l-7.4375 16.796875l-1.75 0l-7.4375 -16.796875l1.90625 0l6.4375 14.59375l6.484375 -14.59375l1.796875 0zm2.4231873 0l1.78125 0l0 16.796875l-1.78125 0l0 -16.796875zm19.123016 15.265625l0 1.53125l-11.8750305 0l0 -16.796875l11.5156555 0l0 1.53125l-9.7344055 0l0 5.984375l8.6875305 0l0 1.5l-8.6875305 0l0 6.25l10.0937805 0zm27.003448 -15.265625l-5.65625 16.796875l-1.875 0l-4.921875 -14.328125l-4.9375 14.328125l-1.859375 0l-5.65625 -16.796875l1.828125 0l4.84375 14.4375l5.015625 -14.4375l1.65625 0l4.9375 14.515625l4.921875 -14.515625l1.703125 0z" fill-rule="nonzero"/><path fill="#8d64ff" d="m573.91205 157.2441l260.252 0l0 103.81102l-260.252 0z" fill-rule="evenodd"/><path fill="#ffffff" d="m630.98157 217.83023q-2.5 0 -4.5 -1.09375q-2.0 -1.109375 -3.140625 -3.0625q-1.140625 -1.953125 -1.140625 -4.390625q0 -2.421875 1.140625 -4.375q1.140625 -1.953125 3.15625 -3.046875q2.015625 -1.109375 4.515625 -1.109375q1.859375 0 3.4375 0.625q1.59375 0.609375 2.703125 1.8125l-1.125 1.125q-1.96875 -1.984375 -4.96875 -1.984375q-2.0 0 -3.640625 0.921875q-1.625 0.90625 -2.546875 2.484375q-0.921875 1.578125 -0.921875 3.546875q0 1.96875 0.921875 3.5625q0.921875 1.578125 2.546875 2.5q1.640625 0.90625 3.640625 0.90625q3.015625 0 4.96875 -2.015625l1.125 1.125q-1.109375 1.203125 -2.703125 1.84375q-1.59375 0.625 -3.46875 0.625zm16.94281 0q-2.5 0 -4.53125 -1.109375q-2.015625 -1.125 -3.15625 -3.0625q-1.140625 -1.9375 -1.140625 -4.375q0 -2.421875 1.140625 -4.359375q1.140625 -1.953125 3.15625 -3.0625q2.03125 -1.109375 4.53125 -1.109375q2.5 0 4.5 1.109375q2.0 1.09375 3.15625 3.046875q1.15625 1.953125 1.15625 4.375q0 2.4375 -1.15625 4.390625q-1.15625 1.953125 -3.15625 3.0625q-2.0 1.09375 -4.5 1.09375zm0 -1.578125q2.0 0 3.59375 -0.890625q1.609375 -0.90625 2.515625 -2.5q0.921875 -1.609375 0.921875 -3.578125q0 -1.96875 -0.921875 -3.5625q-0.90625 -1.59375 -2.515625 -2.484375q-1.59375 -0.90625 -3.59375 -0.90625q-1.984375 0 -3.609375 0.90625q-1.625 0.890625 -2.546875 2.484375q-0.921875 1.59375 -0.921875 3.5625q0 1.96875 0.921875 3.578125q0.921875 1.59375 2.546875 2.5q1.625 0.890625 3.609375 0.890625zm30.2453 -15.359375l0 16.796875l-1.703125 0l0 -13.4375l-6.609375 11.296875l-0.828125 0l-6.609375 -11.234375l0 13.375l-1.703125 0l0 -16.796875l1.46875 0l7.296875 12.453125l7.21875 -12.453125l1.46875 0zm11.763672 0q3.203125 0 5.03125 1.53125q1.828125 1.53125 1.828125 4.21875q0 2.6875 -1.828125 4.21875q-1.828125 1.53125 -5.03125 1.53125l-4.515625 0l0 5.296875l-1.78125 0l0 -16.796875l6.296875 0zm-0.0625 9.9375q2.5 0 3.8125 -1.09375q1.328125 -1.09375 1.328125 -3.09375q0 -2.03125 -1.328125 -3.125q-1.3125 -1.09375 -3.8125 -1.09375l-4.453125 0l0 8.40625l4.453125 0zm18.34137 7.0q-2.5 0 -4.53125 -1.109375q-2.015625 -1.125 -3.15625 -3.0625q-1.140625 -1.9375 -1.140625 -4.375q0 -2.421875 1.140625 -4.359375q1.140625 -1.953125 3.15625 -3.0625q2.03125 -1.109375 4.53125 -1.109375q2.5 0 4.5 1.109375q2.0 1.09375 3.15625 3.046875q1.15625 1.953125 1.15625 4.375q0 2.4375 -1.15625 4.390625q-1.15625 1.953125 -3.15625 3.0625q-2.0 1.09375 -4.5 1.09375zm0 -1.578125q2.0 0 3.59375 -0.890625q1.609375 -0.90625 2.515625 -2.5q0.921875 -1.609375 0.921875 -3.578125q0 -1.96875 -0.921875 -3.5625q-0.90625 -1.59375 -2.515625 -2.484375q-1.59375 -0.90625 -3.59375 -0.90625q-1.984375 0 -3.609375 0.90625q-1.625 0.890625 -2.546875 2.484375q-0.921875 1.59375 -0.921875 3.5625q0 1.96875 0.921875 3.578125q0.921875 1.59375 2.546875 2.5q1.625 0.890625 3.609375 0.890625zm26.83905 -15.359375l0 16.796875l-1.46875 0l-10.796875 -13.625l0 13.625l-1.78125 0l0 -16.796875l1.46875 0l10.828125 13.625l0 -13.625l1.75 0zm17.340088 15.265625l0 1.53125l-11.875 0l0 -16.796875l11.515625 0l0 1.53125l-9.734375 0l0 5.984375l8.6875 0l0 1.5l-8.6875 0l0 6.25l10.09375 0zm18.227783 -15.265625l0 16.796875l-1.46875 0l-10.796875 -13.625l0 13.625l-1.78125 0l0 -16.796875l1.46875 0l10.828125 13.625l0 -13.625l1.75 0zm8.730713 1.53125l-5.90625 0l0 -1.53125l13.59375 0l0 1.53125l-5.90625 0l0 15.265625l-1.78125 0l0 -15.265625z" fill-rule="nonzero"/><path fill="#8d64ff" d="m846.9908 157.2441l260.252 0l0 103.81102l-260.252 0z" fill-rule="evenodd"/><path fill="#ffffff" d="m923.72394 217.83023q-1.875 0 -3.59375 -0.59375q-1.71875 -0.609375 -2.65625 -1.59375l0.703125 -1.359375q0.90625 0.90625 2.421875 1.46875q1.515625 0.5625 3.125 0.5625q2.25 0 3.375 -0.828125q1.125 -0.828125 1.125 -2.140625q0 -1.015625 -0.609375 -1.609375q-0.609375 -0.59375 -1.5 -0.921875q-0.890625 -0.328125 -2.46875 -0.703125q-1.890625 -0.484375 -3.03125 -0.921875q-1.125 -0.453125 -1.9375 -1.359375q-0.796875 -0.921875 -0.796875 -2.484375q0 -1.265625 0.671875 -2.3125q0.671875 -1.046875 2.0625 -1.65625q1.390625 -0.625 3.46875 -0.625q1.4375 0 2.8125 0.390625q1.375 0.390625 2.390625 1.09375l-0.59375 1.40625q-1.0625 -0.6875 -2.265625 -1.03125q-1.203125 -0.359375 -2.34375 -0.359375q-2.21875 0 -3.34375 0.859375q-1.109375 0.84375 -1.109375 2.1875q0 1.015625 0.609375 1.625q0.625 0.609375 1.546875 0.9375q0.921875 0.328125 2.484375 0.703125q1.84375 0.46875 2.984375 0.90625q1.140625 0.4375 1.921875 1.34375q0.796875 0.90625 0.796875 2.4375q0 1.265625 -0.6875 2.3125q-0.671875 1.046875 -2.09375 1.65625q-1.40625 0.609375 -3.46875 0.609375zm21.994385 -1.671875l0 1.53125l-11.875 0l0 -16.796875l11.515625 0l0 1.53125l-9.734375 0l0 5.984375l8.6875 0l0 1.5l-8.6875 0l0 6.25l10.09375 0zm15.913086 -6.875l1.703125 0l0 6.421875q-1.171875 1.03125 -2.78125 1.578125q-1.609375 0.546875 -3.375 0.546875q-2.53125 0 -4.546875 -1.09375q-2.015625 -1.109375 -3.171875 -3.0625q-1.140625 -1.953125 -1.140625 -4.390625q0 -2.421875 1.140625 -4.375q1.15625 -1.953125 3.171875 -3.046875q2.015625 -1.109375 4.5625 -1.109375q1.921875 0 3.53125 0.609375q1.609375 0.609375 2.71875 1.8125l-1.109375 1.125q-2.0 -1.96875 -5.0625 -1.96875q-2.046875 0 -3.6875 0.90625q-1.640625 0.890625 -2.578125 2.484375q-0.9375 1.59375 -0.9375 3.5625q0 1.96875 0.9375 3.5625q0.9375 1.578125 2.5625 2.5q1.640625 0.90625 3.671875 0.90625q2.59375 0 4.390625 -1.296875l0 -5.671875zm24.17694 -8.390625l0 16.796875l-1.703125 0l0 -13.4375l-6.609375 11.296875l-0.828125 0l-6.609375 -11.234375l0 13.375l-1.703125 0l0 -16.796875l1.46875 0l7.296875 12.453125l7.21875 -12.453125l1.46875 0zm17.341797 15.265625l0 1.53125l-11.875 0l0 -16.796875l11.515625 0l0 1.53125l-9.734375 0l0 5.984375l8.6875 0l0 1.5l-8.6875 0l0 6.25l10.09375 0zm18.227844 -15.265625l0 16.796875l-1.46875 0l-10.796875 -13.625l0 13.625l-1.78125 0l0 -16.796875l1.46875 0l10.828125 13.625l0 -13.625l1.75 0zm8.730652 1.53125l-5.90625 0l0 -1.53125l13.59375 0l0 1.53125l-5.90625 0l0 15.265625l-1.78125 0l0 -15.265625z" fill-rule="nonzero"/><path fill="#64d7ff" d="m27.754593 304.85696l260.25195 0l0 103.811005l-260.25195 0z" fill-rule="evenodd"/><path fill="#ffffff" d="m107.2159 348.50558l-7.4375 16.796875l-1.75 0l-7.4375 -16.796875l1.90625 0l6.4375 14.59375l6.484375 -14.59375l1.796875 0zm12.450455 12.3125l-9.359375 0l-2.015625 4.484375l-1.84375 0l7.6875 -16.796875l1.75 0l7.671875 16.796875l-1.875 0l-2.015625 -4.484375zm-0.640625 -1.4375l-4.03125 -9.03125l-4.03125 9.03125l8.0625 0zm18.786072 5.921875l-3.828125 -5.40625q-0.65625 0.078125 -1.34375 0.078125l-4.515625 0l0 5.328125l-1.78125 0l0 -16.796875l6.296875 0q3.203125 0 5.03125 1.53125q1.828125 1.53125 1.828125 4.21875q0 1.96875 -1.0 3.328125q-1.0 1.359375 -2.84375 1.953125l4.109375 5.765625l-1.953125 0zm-5.234375 -6.84375q2.5 0 3.8125 -1.09375q1.328125 -1.109375 1.328125 -3.109375q0 -2.03125 -1.328125 -3.125q-1.3125 -1.09375 -3.8125 -1.09375l-4.453125 0l0 8.421875l4.453125 0zm11.117569 -9.953125l1.78125 0l0 16.796875l-1.78125 0l0 -16.796875zm17.779236 12.3125l-9.359375 0l-2.015625 4.484375l-1.84375 0l7.6875 -16.796875l1.75 0l7.671875 16.796875l-1.875 0l-2.015625 -4.484375zm-0.640625 -1.4375l-4.03125 -9.03125l-4.03125 9.03125l8.0625 0zm9.74295 -9.34375l-5.90625 0l0 -1.53125l13.59375 0l0 1.53125l-5.90625 0l0 15.265625l-1.78125 0l0 -15.265625zm10.51033 -1.53125l1.78125 0l0 16.796875l-1.78125 0l0 -16.796875zm14.591736 16.9375q-2.5 0 -4.53125 -1.109375q-2.015625 -1.125 -3.15625 -3.0625q-1.140625 -1.9375 -1.140625 -4.375q0 -2.421875 1.140625 -4.359375q1.140625 -1.953125 3.15625 -3.0625q2.03125 -1.109375 4.53125 -1.109375q2.5 0 4.5 1.109375q2.0 1.09375 3.15625 3.046875q1.15625 1.953125 1.15625 4.375q0 2.4375 -1.15625 4.390625q-1.15625 1.953125 -3.15625 3.0625q-2.0 1.09375 -4.5 1.09375zm0 -1.578125q2.0 0 3.59375 -0.890625q1.609375 -0.90625 2.515625 -2.5q0.921875 -1.609375 0.921875 -3.578125q0 -1.96875 -0.921875 -3.5625q-0.90625 -1.59375 -2.515625 -2.484375q-1.59375 -0.90625 -3.59375 -0.90625q-1.984375 0 -3.609375 0.90625q-1.625 0.890625 -2.546875 2.484375q-0.921875 1.59375 -0.921875 3.5625q0 1.96875 0.921875 3.578125q0.921875 1.59375 2.546875 2.5q1.625 0.890625 3.609375 0.890625zm26.839066 -15.359375l0 16.796875l-1.46875 0l-10.796875 -13.625l0 13.625l-1.78125 0l0 -16.796875l1.46875 0l10.828125 13.625l0 -13.625l1.75 0z" fill-rule="nonzero"/><path fill="#000000" fill-opacity="0.0" d="m157.8819 113.41338c0 10.957779 0.01574707 16.43525 0.03149414 21.915565c0.01574707 5.480316 0.03149414 10.96347 0.03149414 21.926956" fill-rule="evenodd"/><path stroke="#000000" stroke-width="1.0" stroke-linejoin="round" stroke-linecap="butt" d="m157.8819 113.41338c0 10.957779 0.01574707 16.43525 0.03149414 21.915565c0.01574707 5.480316 0.03149414 10.96347 0.03149414 21.926956" fill-rule="evenodd"/><path fill="#000000" fill-opacity="0.0" d="m157.8819 113.41338c0 10.957779 68.267715 16.43525 136.53543 21.915565c68.2677 5.480316 136.53543 10.96347 136.53543 21.926956" fill-rule="evenodd"/><path stroke="#000000" stroke-width="1.0" stroke-linejoin="round" stroke-linecap="butt" d="m157.8819 113.41338c0 10.957779 68.267715 16.43525 136.53543 21.915565c68.2677 5.480316 136.53543 10.96347 136.53543 21.926956" fill-rule="evenodd"/><path fill="#000000" fill-opacity="0.0" d="m157.8819 113.41338c0 10.957779 136.53543 16.43525 273.07086 21.915565c136.5354 5.480316 273.07086 10.96347 273.07086 21.926956" fill-rule="evenodd"/><path stroke="#000000" stroke-width="1.0" stroke-linejoin="round" stroke-linecap="butt" d="m157.8819 113.41338c0 10.957779 136.53543 16.43525 273.07086 21.915565c136.5354 5.480316 273.07086 10.96347 273.07086 21.926956" fill-rule="evenodd"/><path fill="#000000" fill-opacity="0.0" d="m157.8819 113.41338c0 10.957779 204.811 16.43525 409.62207 21.915565c204.81097 5.480316 409.622 10.96347 409.622 21.926956" fill-rule="evenodd"/><path stroke="#000000" stroke-width="1.0" stroke-linejoin="round" stroke-linecap="butt" d="m157.8819 113.41338c0 10.957779 204.811 16.43525 409.62207 21.915565c204.81097 5.480316 409.622 10.96347 409.622 21.926956" fill-rule="evenodd"/><path fill="#000000" fill-opacity="0.0" d="m157.88058 261.0551l0 43.811035" fill-rule="evenodd"/><path stroke="#000000" stroke-width="1.0" stroke-linejoin="round" stroke-linecap="butt" d="m157.88058 261.0551l0 43.811035" fill-rule="evenodd"/><path fill="#000000" fill-opacity="0.0" d="m430.95932 261.0551c0 86.30649 -68.26773 154.16022 -136.53543 172.61298c-68.267715 18.452759 -136.53543 -12.495453 -136.53543 -24.990936" fill-rule="evenodd"/><path stroke="#000000" stroke-width="1.0" stroke-linejoin="round" stroke-linecap="butt" stroke-dasharray="4.0,3.0" d="m430.95932 261.0551c0 86.30649 -68.26773 154.16022 -136.53543 172.61298c-68.267715 18.452759 -136.53543 -12.495453 -136.53543 -24.990936" fill-rule="evenodd"/><path fill="#000000" fill-opacity="0.0" d="m704.0381 261.0551c0 86.30649 -136.53546 154.16022 -273.0709 172.61298c-136.53543 18.452759 -273.07086 -12.495453 -273.07086 -24.990936" fill-rule="evenodd"/><path stroke="#000000" stroke-width="1.0" stroke-linejoin="round" stroke-linecap="butt" stroke-dasharray="4.0,3.0" d="m704.0381 261.0551c0 86.30649 -136.53546 154.16022 -273.0709 172.61298c-136.53543 18.452759 -273.07086 -12.495453 -273.07086 -24.990936" fill-rule="evenodd"/><path fill="#000000" fill-opacity="0.0" d="m977.1168 261.0551c0 86.30649 -204.81104 154.16022 -409.62207 172.61298c-204.81104 18.452759 -409.62207 -12.495453 -409.62207 -24.990936" fill-rule="evenodd"/><path stroke="#000000" stroke-width="1.0" stroke-linejoin="round" stroke-linecap="butt" stroke-dasharray="8.0,3.0" d="m977.1168 261.0551c0 86.30649 -204.81104 154.16022 -409.62207 172.61298c-204.81104 18.452759 -409.62207 -12.495453 -409.62207 -24.990936" fill-rule="evenodd"/><path fill="#6488ff" d="m300.83466 9.602363l260.25195 0l0 103.81102l-260.25195 0z" fill-rule="evenodd"/><path fill="#ffffff" d="m384.47977 60.6885q-1.875 0 -3.59375 -0.59375q-1.71875 -0.609375 -2.65625 -1.59375l0.703125 -1.359375q0.90625 0.90625 2.421875 1.46875q1.515625 0.5625 3.125 0.5625q2.25 0 3.375 -0.828125q1.125 -0.828125 1.125 -2.140625q0 -1.015625 -0.609375 -1.609375q-0.609375 -0.59375 -1.5 -0.921875q-0.890625 -0.328125 -2.46875 -0.703125q-1.890625 -0.484375 -3.03125 -0.921875q-1.125 -0.453125 -1.9375 -1.359375q-0.796875 -0.921875 -0.796875 -2.484375q0 -1.265625 0.671875 -2.3125q0.671875 -1.046875 2.0625 -1.65625q1.390625 -0.625 3.46875 -0.625q1.4375 0 2.8125 0.390625q1.375 0.390625 2.390625 1.09375l-0.59375 1.40625q-1.0625 -0.6875 -2.265625 -1.03125q-1.203125 -0.359375 -2.34375 -0.359375q-2.21875 0 -3.34375 0.859375q-1.109375 0.84375 -1.109375 2.1875q0 1.015625 0.609375 1.625q0.625 0.609375 1.546875 0.9375q0.921875 0.328125 2.484375 0.703125q1.84375 0.46875 2.984375 0.90625q1.140625 0.4375 1.921875 1.34375q0.796875 0.90625 0.796875 2.4375q0 1.265625 -0.6875 2.3125q-0.671875 1.046875 -2.09375 1.65625q-1.40625 0.609375 -3.46875 0.609375zm17.41623 0q-2.5 0 -4.5 -1.09375q-2.0 -1.109375 -3.140625 -3.0625q-1.140625 -1.953125 -1.140625 -4.390625q0 -2.421875 1.140625 -4.375q1.140625 -1.953125 3.15625 -3.046875q2.015625 -1.109375 4.515625 -1.109375q1.859375 0 3.4375 0.625q1.59375 0.609375 2.703125 1.8125l-1.125 1.125q-1.96875 -1.984375 -4.96875 -1.984375q-2.0 0 -3.640625 0.921875q-1.625 0.90625 -2.546875 2.484375q-0.921875 1.578125 -0.921875 3.546875q0 1.96875 0.921875 3.5625q0.921875 1.578125 2.546875 2.5q1.640625 0.90625 3.640625 0.90625q3.015625 0 4.96875 -2.015625l1.125 1.125q-1.109375 1.203125 -2.703125 1.84375q-1.59375 0.625 -3.46875 0.625zm24.00595 -16.9375l0 16.796875l-1.75 0l0 -7.75l-10.515625 0l0 7.75l-1.78125 0l0 -16.796875l1.78125 0l0 7.484375l10.515625 0l0 -7.484375l1.75 0zm17.340088 15.265625l0 1.53125l-11.875 0l0 -16.796875l11.515625 0l0 1.53125l-9.734375 0l0 5.984375l8.6875 0l0 1.5l-8.6875 0l0 6.25l10.09375 0zm21.634064 -15.265625l0 16.796875l-1.703125 0l0 -13.4375l-6.609375 11.296875l-0.828125 0l-6.609375 -11.234375l0 13.375l-1.703125 0l0 -16.796875l1.46875 0l7.296875 12.453125l7.21875 -12.453125l1.46875 0zm15.998077 12.3125l-9.359375 0l-2.015625 4.484375l-1.84375 0l7.6875 -16.796875l1.75 0l7.671875 16.796875l-1.875 0l-2.015625 -4.484375zm-0.640625 -1.4375l-4.03125 -9.03125l-4.03125 9.03125l8.0625 0z" fill-rule="nonzero"/><path fill="#ffffff" d="m369.02863 70.66475l4.5625 0q1.765625 0 3.125 0.71875q1.359375 0.703125 2.109375 1.984375q0.765625 1.265625 0.765625 2.90625q0 1.625 -0.765625 2.90625q-0.75 1.265625 -2.109375 1.984375q-1.359375 0.703125 -3.125 0.703125l-4.5625 0l0 -11.203125zm4.484375 10.171875q1.484375 0 2.578125 -0.578125q1.109375 -0.578125 1.71875 -1.609375q0.609375 -1.03125 0.609375 -2.375q0 -1.34375 -0.609375 -2.375q-0.609375 -1.046875 -1.71875 -1.625q-1.09375 -0.578125 -2.578125 -0.578125l-3.296875 0l0 9.140625l3.296875 0zm16.653534 0l0 1.03125l-7.921875 0l0 -11.203125l7.671875 0l0 1.03125l-6.484375 0l0 3.984375l5.78125 0l0 1.0l-5.78125 0l0 4.15625l6.734375 0zm11.934631 -10.171875l-4.96875 11.203125l-1.15625 0l-4.96875 -11.203125l1.28125 0l4.28125 9.734375l4.328125 -9.734375l1.203125 0zm9.537415 10.171875l0 1.03125l-7.921875 0l0 -11.203125l7.671875 0l0 1.03125l-6.484375 0l0 3.984375l5.78125 0l0 1.0l-5.78125 0l0 4.15625l6.734375 0zm2.782135 -10.171875l1.1875 0l0 10.171875l6.265625 0l0 1.03125l-7.453125 0l0 -11.203125zm14.090668 11.296875q-1.65625 0 -3.015625 -0.734375q-1.34375 -0.75 -2.109375 -2.046875q-0.765625 -1.296875 -0.765625 -2.90625q0 -1.625 0.765625 -2.921875q0.765625 -1.296875 2.109375 -2.03125q1.359375 -0.75 3.015625 -0.75q1.671875 0 3.0 0.734375q1.34375 0.734375 2.109375 2.046875q0.765625 1.296875 0.765625 2.921875q0 1.609375 -0.765625 2.921875q-0.765625 1.296875 -2.109375 2.03125q-1.328125 0.734375 -3.0 0.734375zm0 -1.046875q1.328125 0 2.390625 -0.59375q1.078125 -0.609375 1.6875 -1.671875q0.609375 -1.0625 0.609375 -2.375q0 -1.3125 -0.609375 -2.375q-0.609375 -1.078125 -1.6875 -1.671875q-1.0625 -0.59375 -2.390625 -0.59375q-1.328125 0 -2.40625 0.59375q-1.078125 0.59375 -1.703125 1.671875q-0.609375 1.0625 -0.609375 2.375q0 1.3125 0.609375 2.375q0.625 1.0625 1.703125 1.671875q1.078125 0.59375 2.40625 0.59375zm12.720886 -10.25q2.140625 0 3.359375 1.03125q1.21875 1.015625 1.21875 2.8125q0 1.796875 -1.21875 2.8125q-1.21875 1.015625 -3.359375 1.015625l-3.0 0l0 3.53125l-1.1875 0l0 -11.203125l4.1875 0zm-0.03125 6.625q1.65625 0 2.53125 -0.71875q0.890625 -0.734375 0.890625 -2.0625q0 -1.359375 -0.890625 -2.078125q-0.875 -0.734375 -2.53125 -0.734375l-2.96875 0l0 5.59375l2.96875 0zm18.796783 -6.625l0 11.203125l-1.140625 0l0 -8.953125l-4.390625 7.53125l-0.5625 0l-4.40625 -7.484375l0 8.90625l-1.125 0l0 -11.203125l0.96875 0l4.859375 8.3125l4.828125 -8.3125l0.96875 0zm11.576904 10.171875l0 1.03125l-7.921875 0l0 -11.203125l7.671875 0l0 1.03125l-6.484375 0l0 3.984375l5.78125 0l0 1.0l-5.78125 0l0 4.15625l6.734375 0zm12.14151 -10.171875l0 11.203125l-0.984375 0l-7.1875 -9.09375l0 9.09375l-1.1875 0l0 -11.203125l0.96875 0l7.21875 9.09375l0 -9.09375l1.171875 0zm5.820526 1.03125l-3.9375 0l0 -1.03125l9.0625 0l0 1.03125l-3.9375 0l0 10.171875l-1.1875 0l0 -10.171875z" fill-rule="nonzero"/><path fill="#000000" fill-opacity="0.0" d="m288.00787 61.507874c3.206726 0 4.8110657 0.01574707 6.4134216 0.031497955c1.602356 0.01574707 3.2027283 0.03149414 6.405487 0.03149414" fill-rule="evenodd"/><path stroke="#000000" stroke-width="1.0" stroke-linejoin="round" stroke-linecap="butt" d="m288.00787 61.507874c3.206726 0 4.8110657 0.01574707 6.4134216 0.031497955c1.602356 0.01574707 3.2027283 0.03149414 6.405487 0.03149414" fill-rule="evenodd"/><path fill="#6488ff" d="m573.9134 9.633859l260.25195 0l0 103.81103l-260.25195 0z" fill-rule="evenodd"/><path fill="#ffffff" d="m657.55853 60.719994q-1.875 0 -3.59375 -0.59375q-1.71875 -0.609375 -2.65625 -1.59375l0.703125 -1.359375q0.90625 0.90625 2.421875 1.46875q1.515625 0.5625 3.125 0.5625q2.25 0 3.375 -0.828125q1.125 -0.828125 1.125 -2.140625q0 -1.015625 -0.609375 -1.609375q-0.609375 -0.59375 -1.5 -0.921875q-0.890625 -0.328125 -2.46875 -0.703125q-1.890625 -0.484375 -3.03125 -0.921875q-1.125 -0.453125 -1.9375 -1.359375q-0.796875 -0.921875 -0.796875 -2.484375q0 -1.265625 0.671875 -2.3125q0.671875 -1.046875 2.0625 -1.65625q1.390625 -0.625 3.46875 -0.625q1.4375 0 2.8125 0.390625q1.375 0.390625 2.390625 1.09375l-0.59375 1.40625q-1.0625 -0.6875 -2.265625 -1.03125q-1.203125 -0.359375 -2.34375 -0.359375q-2.21875 0 -3.34375 0.859375q-1.109375 0.84375 -1.109375 2.1875q0 1.015625 0.609375 1.625q0.625 0.609375 1.546875 0.9375q0.921875 0.328125 2.484375 0.703125q1.84375 0.46875 2.984375 0.90625q1.140625 0.4375 1.921875 1.34375q0.796875 0.90625 0.796875 2.4375q0 1.265625 -0.6875 2.3125q-0.671875 1.046875 -2.09375 1.65625q-1.40625 0.609375 -3.46875 0.609375zm17.416199 0q-2.5 0 -4.5 -1.09375q-2.0 -1.109375 -3.140625 -3.0625q-1.140625 -1.953125 -1.140625 -4.390625q0 -2.421875 1.140625 -4.375q1.140625 -1.953125 3.15625 -3.046875q2.015625 -1.109375 4.515625 -1.109375q1.859375 0 3.4375 0.625q1.59375 0.609375 2.703125 1.8125l-1.125 1.125q-1.96875 -1.984375 -4.96875 -1.984375q-2.0 0 -3.640625 0.921875q-1.625 0.90625 -2.546875 2.484375q-0.921875 1.578125 -0.921875 3.546875q0 1.96875 0.921875 3.5625q0.921875 1.578125 2.546875 2.5q1.640625 0.90625 3.640625 0.90625q3.015625 0 4.96875 -2.015625l1.125 1.125q-1.109375 1.203125 -2.703125 1.84375q-1.59375 0.625 -3.46875 0.625zm24.005981 -16.9375l0 16.796875l-1.75 0l0 -7.75l-10.515625 0l0 7.75l-1.78125 0l0 -16.796875l1.78125 0l0 7.484375l10.515625 0l0 -7.484375l1.75 0zm17.340027 15.265625l0 1.53125l-11.875 0l0 -16.796875l11.515625 0l0 1.53125l-9.734375 0l0 5.984375l8.6875 0l0 1.5l-8.6875 0l0 6.25l10.09375 0zm21.634094 -15.265625l0 16.796875l-1.703125 0l0 -13.4375l-6.609375 11.296875l-0.828125 0l-6.609375 -11.234375l0 13.375l-1.703125 0l0 -16.796875l1.46875 0l7.296875 12.453125l7.21875 -12.453125l1.46875 0zm15.998047 12.3125l-9.359375 0l-2.015625 4.484375l-1.84375 0l7.6875 -16.796875l1.75 0l7.671875 16.796875l-1.875 0l-2.015625 -4.484375zm-0.640625 -1.4375l-4.03125 -9.03125l-4.03125 9.03125l8.0625 0z" fill-rule="nonzero"/><path fill="#ffffff" d="m653.0469 70.69624q2.140625 0 3.359375 1.03125q1.21875 1.015625 1.21875 2.8125q0 1.796875 -1.21875 2.8125q-1.21875 1.015625 -3.359375 1.015625l-3.0 0l0 3.53125l-1.1875 0l0 -11.203125l4.1875 0zm-0.03125 6.625q1.65625 0 2.53125 -0.71875q0.890625 -0.734375 0.890625 -2.0625q0 -1.359375 -0.890625 -2.078125q-0.875 -0.734375 -2.53125 -0.734375l-2.96875 0l0 5.59375l2.96875 0zm14.812378 4.578125l-2.5625 -3.59375q-0.421875 0.046875 -0.890625 0.046875l-3.0 0l0 3.546875l-1.1875 0l0 -11.203125l4.1875 0q2.140625 0 3.359375 1.03125q1.21875 1.015625 1.21875 2.8125q0 1.3125 -0.671875 2.21875q-0.65625 0.90625 -1.890625 1.296875l2.734375 3.84375l-1.296875 0zm-3.484375 -4.5625q1.65625 0 2.53125 -0.734375q0.890625 -0.734375 0.890625 -2.0625q0 -1.359375 -0.890625 -2.078125q-0.875 -0.734375 -2.53125 -0.734375l-2.96875 0l0 5.609375l2.96875 0zm12.302429 4.65625q-1.65625 0 -3.015625 -0.734375q-1.34375 -0.75 -2.109375 -2.046875q-0.765625 -1.296875 -0.765625 -2.90625q0 -1.625 0.765625 -2.921875q0.765625 -1.296875 2.109375 -2.03125q1.359375 -0.75 3.015625 -0.75q1.671875 0 3.0 0.734375q1.34375 0.734375 2.109375 2.046875q0.765625 1.296875 0.765625 2.921875q0 1.609375 -0.765625 2.921875q-0.765625 1.296875 -2.109375 2.03125q-1.328125 0.734375 -3.0 0.734375zm0 -1.046875q1.328125 0 2.390625 -0.59375q1.078125 -0.609375 1.6875 -1.671875q0.609375 -1.0625 0.609375 -2.375q0 -1.3125 -0.609375 -2.375q-0.609375 -1.078125 -1.6875 -1.671875q-1.0625 -0.59375 -2.390625 -0.59375q-1.328125 0 -2.40625 0.59375q-1.078125 0.59375 -1.703125 1.671875q-0.609375 1.0625 -0.609375 2.375q0 1.3125 0.609375 2.375q0.625 1.0625 1.703125 1.671875q1.078125 0.59375 2.40625 0.59375zm8.533386 -10.25l4.5625 0q1.765625 0 3.125 0.71875q1.359375 0.703125 2.109375 1.984375q0.765625 1.265625 0.765625 2.90625q0 1.625 -0.765625 2.90625q-0.75 1.265625 -2.109375 1.984375q-1.359375 0.703125 -3.125 0.703125l-4.5625 0l0 -11.203125zm4.484375 10.171875q1.484375 0 2.578125 -0.578125q1.109375 -0.578125 1.71875 -1.609375q0.609375 -1.03125 0.609375 -2.375q0 -1.34375 -0.609375 -2.375q-0.609375 -1.046875 -1.71875 -1.625q-1.09375 -0.578125 -2.578125 -0.578125l-3.296875 0l0 9.140625l3.296875 0zm13.247253 1.125q-2.1875 0 -3.40625 -1.25q-1.203125 -1.25 -1.203125 -3.625l0 -6.421875l1.171875 0l0 6.375q0 1.953125 0.875 2.921875q0.890625 0.953125 2.5625 0.953125q1.671875 0 2.546875 -0.953125q0.890625 -0.96875 0.890625 -2.921875l0 -6.375l1.140625 0l0 6.421875q0 2.375 -1.203125 3.625q-1.203125 1.25 -3.375 1.25zm13.015808 0q-1.65625 0 -3.0 -0.734375q-1.328125 -0.734375 -2.09375 -2.03125q-0.765625 -1.3125 -0.765625 -2.921875q0 -1.625 0.765625 -2.921875q0.765625 -1.3125 2.109375 -2.046875q1.34375 -0.734375 3.0 -0.734375q1.25 0 2.296875 0.421875q1.0625 0.40625 1.796875 1.21875l-0.75 0.75q-1.3125 -1.328125 -3.3125 -1.328125q-1.328125 0 -2.421875 0.609375q-1.078125 0.59375 -1.703125 1.65625q-0.609375 1.0625 -0.609375 2.375q0 1.3125 0.609375 2.375q0.625 1.046875 1.703125 1.65625q1.09375 0.609375 2.421875 0.609375q2.015625 0 3.3125 -1.34375l0.75 0.75q-0.734375 0.796875 -1.796875 1.21875q-1.0625 0.421875 -2.3125 0.421875zm8.672546 -10.265625l-3.9375 0l0 -1.03125l9.0625 0l0 1.03125l-3.9375 0l0 10.171875l-1.1875 0l0 -10.171875zm7.012146 -1.03125l1.1875 0l0 11.203125l-1.1875 0l0 -11.203125zm9.722595 11.296875q-1.65625 0 -3.015625 -0.734375q-1.34375 -0.75 -2.109375 -2.046875q-0.765625 -1.296875 -0.765625 -2.90625q0 -1.625 0.765625 -2.921875q0.765625 -1.296875 2.109375 -2.03125q1.359375 -0.75 3.015625 -0.75q1.671875 0 3.0 0.734375q1.34375 0.734375 2.109375 2.046875q0.765625 1.296875 0.765625 2.921875q0 1.609375 -0.765625 2.921875q-0.765625 1.296875 -2.109375 2.03125q-1.328125 0.734375 -3.0 0.734375zm0 -1.046875q1.328125 0 2.390625 -0.59375q1.078125 -0.609375 1.6875 -1.671875q0.609375 -1.0625 0.609375 -2.375q0 -1.3125 -0.609375 -2.375q-0.609375 -1.078125 -1.6875 -1.671875q-1.0625 -0.59375 -2.390625 -0.59375q-1.328125 0 -2.40625 0.59375q-1.078125 0.59375 -1.703125 1.671875q-0.609375 1.0625 -0.609375 2.375q0 1.3125 0.609375 2.375q0.625 1.0625 1.703125 1.671875q1.078125 0.59375 2.40625 0.59375zm17.892822 -10.25l0 11.203125l-0.984375 0l-7.1875 -9.09375l0 9.09375l-1.1875 0l0 -11.203125l0.96875 0l7.21875 9.09375l0 -9.09375l1.171875 0z" fill-rule="nonzero"/><path fill="#000000" fill-opacity="0.0" d="m561.0866 61.507874c3.206726 0 4.811096 0.01574707 6.413452 0.031497955c1.602356 0.01574707 3.2026978 0.03149414 6.4054565 0.03149414" fill-rule="evenodd"/><path stroke="#000000" stroke-width="1.0" stroke-linejoin="round" stroke-linecap="butt" d="m561.0866 61.507874c3.206726 0 4.811096 0.01574707 6.413452 0.031497955c1.602356 0.01574707 3.2026978 0.03149414 6.4054565 0.03149414" fill-rule="evenodd"/></g></svg>